<?xml version="1.0" standalone="no"?>
<!DOCTYPE svg PUBLIC "-//W3C//DTD SVG 20010904//EN"
 "http://www.w3.org/TR/2001/REC-SVG-20010904/DTD/svg10.dtd">
<svg version="1.0" xmlns="http://www.w3.org/2000/svg"
 width="700.000000pt" height="700.000000pt" viewBox="0 0 700.000000 700.000000"
 preserveAspectRatio="xMidYMid meet">
<metadata>
Created by potrace 1.11, written by Peter Selinger 2001-2013
</metadata>
<g transform="translate(0.000000,700.000000) scale(0.100000,-0.100000)"
fill="#000000" stroke="none">
<path d="M3285 6994 c-203 -20 -276 -28 -375 -45 -610 -105 -1195 -376 -1665
-772 -95 -81 -310 -294 -394 -392 -468 -542 -742 -1175 -833 -1925 -20 -160
-16 -593 6 -765 32 -250 86 -496 155 -698 l30 -87 -54 -113 c-205 -429 -206
-898 -4 -1323 177 -373 503 -662 895 -793 85 -29 218 -61 250 -61 12 0 14 206
14 1514 l0 1513 -83 -17 c-140 -29 -252 -69 -384 -135 -70 -36 -128 -64 -129
-62 -1 1 -9 43 -18 92 -49 285 -49 635 -1 930 185 1130 1049 2051 2165 2305
244 56 330 65 640 65 310 0 396 -9 640 -65 1116 -254 1980 -1175 2165 -2305
48 -293 48 -643 -1 -930 -8 -49 -16 -91 -19 -93 -2 -2 -34 13 -72 35 -137 77
-278 129 -440 163 l-83 17 0 -1513 c0 -1308 2 -1514 14 -1514 32 0 165 32 250
61 510 171 903 609 1010 1129 72 347 34 668 -119 987 l-54 113 30 87 c69 202
123 448 155 698 22 172 26 605 6 765 -91 750 -365 1383 -833 1925 -84 98 -299
311 -394 392 -518 437 -1148 710 -1845 798 -117 15 -536 28 -625 19z"/>
<path d="M1530 1530 l0 -1530 233 0 c137 0 248 5 272 11 56 15 128 92 143 152
9 34 12 397 12 1370 0 1459 3 1389 -62 1456 -65 66 -85 71 -355 71 l-243 0 0
-1530z"/>
<path d="M4945 3041 c-22 -10 -55 -33 -73 -52 -65 -67 -62 3 -62 -1456 0 -973
3 -1336 12 -1370 15 -60 87 -137 143 -152 24 -6 135 -11 273 -11 l232 0 0
1530 0 1530 -242 0 c-214 0 -248 -3 -283 -19z"/>
</g>
</svg>
